<svg width="320" height="91" viewBox="0 0 320 91" fill="none" xmlns="http://www.w3.org/2000/svg">
<path d="M13.9526 57.8958C8.89218 64.5934 -0.0230045 79.5959 4.79923 86.0256C10.827 94.0627 55.2542 67.7189 82.7142 23.7383C88.5931 12.4269 93.5196 -6.31141 66.1935 9.22692" stroke="white" stroke-width="5.92499" stroke-linecap="round"/>
<mask id="path-2-inside-1_31_22" fill="white">
<path fill-rule="evenodd" clip-rule="evenodd" d="M78.752 33.8395C73.844 20.1421 60.747 10.3433 45.3614 10.3433C25.7779 10.3433 9.90222 26.2189 9.90222 45.8025C9.90222 61.1584 19.6633 74.2344 33.3191 79.1645C34.6392 78.281 35.9908 77.3397 37.3687 76.3414C50.651 66.719 66.0299 52.0663 78.752 33.8395ZM80.5589 41.4723C68.1301 58.241 53.708 71.7896 41.0363 81.0006C42.4539 81.173 43.8973 81.2617 45.3614 81.2617C64.945 81.2617 80.8207 65.3861 80.8207 45.8025C80.8207 44.3366 80.7317 42.8915 80.5589 41.4723Z"/>
</mask>
<path fill-rule="evenodd" clip-rule="evenodd" d="M78.752 33.8395C73.844 20.1421 60.747 10.3433 45.3614 10.3433C25.7779 10.3433 9.90222 26.2189 9.90222 45.8025C9.90222 61.1584 19.6633 74.2344 33.3191 79.1645C34.6392 78.281 35.9908 77.3397 37.3687 76.3414C50.651 66.719 66.0299 52.0663 78.752 33.8395ZM80.5589 41.4723C68.1301 58.241 53.708 71.7896 41.0363 81.0006C42.4539 81.173 43.8973 81.2617 45.3614 81.2617C64.945 81.2617 80.8207 65.3861 80.8207 45.8025C80.8207 44.3366 80.7317 42.8915 80.5589 41.4723Z" fill="white"/>
<path d="M78.752 33.8395L79.1569 34.1221L79.3028 33.913L79.2168 33.673L78.752 33.8395ZM33.3191 79.1645L33.1515 79.6289L33.3863 79.7137L33.5938 79.5748L33.3191 79.1645ZM37.3687 76.3414L37.079 75.9416L37.079 75.9416L37.3687 76.3414ZM80.5589 41.4723L81.049 41.4126L80.8994 40.1837L80.1622 41.1783L80.5589 41.4723ZM41.0363 81.0006L40.746 80.6012L39.7307 81.3392L40.9767 81.4907L41.0363 81.0006ZM45.3614 10.837C60.532 10.837 73.4473 20.4987 78.2872 34.0061L79.2168 33.673C74.2407 19.7855 60.962 9.84951 45.3614 9.84951V10.837ZM10.396 45.8025C10.396 26.4916 26.0505 10.837 45.3614 10.837V9.84951C25.5052 9.84951 9.40847 25.9462 9.40847 45.8025H10.396ZM33.4868 78.7001C20.0204 73.8384 10.396 60.9438 10.396 45.8025H9.40847C9.40847 61.3729 19.3061 74.6304 33.1515 79.6289L33.4868 78.7001ZM33.5938 79.5748C34.919 78.6878 36.2756 77.743 37.6584 76.7412L37.079 75.9416C35.7059 76.9363 34.3593 77.8742 33.0445 78.7542L33.5938 79.5748ZM37.6584 76.7412C50.9825 67.0886 66.4012 52.397 79.1569 34.1221L78.3471 33.5569C65.6587 51.7355 50.3196 66.3494 37.079 75.9416L37.6584 76.7412ZM80.1622 41.1783C67.7647 57.9048 53.379 71.4184 40.746 80.6012L41.3266 81.4C54.0371 72.1608 68.4956 58.5771 80.9556 41.7663L80.1622 41.1783ZM45.3614 80.7679C43.9173 80.7679 42.4938 80.6804 41.0959 80.5104L40.9767 81.4907C42.414 81.6655 43.8773 81.7554 45.3614 81.7554V80.7679ZM80.3269 45.8025C80.3269 65.1134 64.6723 80.7679 45.3614 80.7679V81.7554C65.2177 81.7554 81.3144 65.6588 81.3144 45.8025H80.3269ZM80.0688 41.532C80.2392 42.9314 80.3269 44.3566 80.3269 45.8025H81.3144C81.3144 44.3166 81.2242 42.8516 81.049 41.4126L80.0688 41.532Z" fill="white" mask="url(#path-2-inside-1_31_22)"/>
<path d="M108.925 47.6595C103.615 47.6595 100.045 44.2395 100.015 39.2295H105.925C105.985 40.8495 106.945 42.2295 108.895 42.2295C110.575 42.2295 111.625 41.2095 111.625 39.7995C111.625 38.1495 110.245 37.4895 107.605 36.5595C103.315 35.0595 100.885 33.1695 100.885 29.1195C100.885 24.8895 104.335 22.0695 108.805 22.0695C113.605 22.0695 116.755 25.1895 116.785 29.8995L111.265 29.8695C111.205 28.4295 110.425 27.2895 108.805 27.2895C107.455 27.2895 106.585 28.1295 106.585 29.2095C106.585 30.7395 108.115 31.2495 109.945 31.8795C114.145 33.2895 117.715 34.5495 117.715 39.8895C117.715 44.7795 113.905 47.6595 108.925 47.6595ZM120.232 47.2695V22.5495H126.412C134.572 22.5495 137.602 27.3195 137.602 32.4495C137.602 37.5795 134.452 42.3795 127.162 42.3795H126.262V47.2695H120.232ZM126.262 36.4995H127.462C130.252 36.4995 131.692 34.7595 131.692 32.4495C131.692 30.1095 130.222 28.4295 127.462 28.4295H126.262V36.4995ZM142.035 47.2695H135.705L144.705 22.5795H150.945L159.795 47.2695H153.615L152.595 44.2095H143.055L142.035 47.2695ZM144.615 39.4995H151.035L147.825 29.7495L144.615 39.4995ZM171.866 47.4795C164.666 47.4795 159.026 41.7795 159.026 34.9095C159.026 28.0395 164.666 22.3095 171.866 22.3095V28.3695C167.936 28.3695 165.086 31.3095 165.086 34.9095C165.086 38.5095 167.936 41.4495 171.866 41.4495V47.4795ZM185.723 47.7195C178.283 47.7195 172.883 41.7495 172.883 34.8795C172.883 28.0395 178.283 22.0695 185.723 22.0695C193.523 22.0695 199.553 28.9995 198.383 36.6495H178.823C179.273 39.7695 182.063 42.1995 185.693 42.1995C188.153 42.1995 190.283 40.9395 191.393 39.0195H197.903C196.313 44.0595 191.603 47.7195 185.723 47.7195ZM179.183 32.1495H192.113C191.333 29.5395 188.783 27.6795 185.663 27.6795C182.543 27.6795 180.023 29.5695 179.183 32.1495ZM201.384 47.2695V22.5195H214.944V28.2495H207.414V32.6595H214.254V37.7895H207.414V47.2695H201.384ZM217.907 47.2995V22.5495H224.087C232.247 22.5495 235.277 27.3195 235.277 32.4495C235.277 35.3595 234.287 38.1495 232.127 40.0095L235.877 47.2695H228.887L226.817 42.2595C226.247 42.3495 225.617 42.3795 224.957 42.3795H223.937V47.2995H217.907ZM223.937 36.4995H225.137C227.927 36.4995 229.367 34.7595 229.367 32.4495C229.367 30.1095 227.897 28.4295 225.137 28.4295H223.937V36.4995ZM241.352 47.2695H235.022L244.022 22.5795H250.262L259.112 47.2695H252.932L251.912 44.2095H242.372L241.352 47.2695ZM243.932 39.4995H250.352L247.142 29.7495L243.932 39.4995ZM260.71 47.2695V22.5795H268.72L275.02 39.3495L281.23 22.5795H289.18V47.2695H283.15V32.8095L277.66 47.2695H272.29L266.74 32.6295V47.2695H260.71ZM304.844 47.7195C297.404 47.7195 292.004 41.7495 292.004 34.8795C292.004 28.0395 297.404 22.0695 304.844 22.0695C312.644 22.0695 318.674 28.9995 317.504 36.6495H297.944C298.394 39.7695 301.184 42.1995 304.814 42.1995C307.274 42.1995 309.404 40.9395 310.514 39.0195H317.024C315.434 44.0595 310.724 47.7195 304.844 47.7195ZM298.304 32.1495H311.234C310.454 29.5395 307.904 27.6795 304.784 27.6795C301.664 27.6795 299.144 29.5695 298.304 32.1495Z" fill="white"/>
<path d="M100.138 74.5093V65.1868H105.246V67.3451H102.41V69.0062H104.986V70.9385H102.41V74.5093H100.138ZM106.362 74.5206V65.1981H108.69C111.763 65.1981 112.905 66.9948 112.905 68.9271C112.905 70.0232 112.532 71.0741 111.718 71.7747L113.131 74.5093H110.498L109.718 72.6222C109.503 72.6561 109.266 72.6674 109.018 72.6674H108.633V74.5206H106.362ZM108.633 70.4526H109.085C110.136 70.4526 110.679 69.7972 110.679 68.9271C110.679 68.0457 110.125 67.4129 109.085 67.4129H108.633V70.4526ZM115.193 74.5093H112.809L116.199 65.2094H118.549L121.882 74.5093H119.555L119.17 73.3567H115.577L115.193 74.5093ZM116.165 71.5826H118.583L117.374 67.9101L116.165 71.5826ZM122.484 74.5093V65.2094H125.502L127.875 71.5261L130.214 65.2094H133.208V74.5093H130.937V69.0627L128.869 74.5093H126.846L124.756 68.9949V74.5093H122.484ZM134.656 74.5093V65.2207H136.939V74.5093H134.656ZM138.386 74.5093V65.1981H140.68L143.392 70.3509V65.1981H145.675V74.5093H143.415L140.669 69.3113V74.5093H138.386ZM151.578 74.6788C148.764 74.6788 146.742 72.4301 146.742 69.8424C146.742 67.266 148.764 65.0173 151.578 65.0173C153.861 65.0173 155.624 66.5089 156.189 68.4525L153.556 68.4638C153.217 67.7745 152.46 67.2999 151.578 67.2999C150.007 67.2999 148.99 68.4751 148.99 69.8763C148.99 71.2775 149.985 72.4527 151.556 72.4527C152.516 72.4527 153.42 71.8764 153.714 71.0289H150.957V69.3339H156.347C156.686 72.1363 154.527 74.6788 151.578 74.6788ZM160.501 74.5093V65.1981H163.088C165.303 65.1981 166.399 66.023 166.399 67.7406C166.399 68.5429 166.049 69.1418 165.54 69.4695C166.354 69.8085 166.829 70.5882 166.829 71.5261C166.829 73.368 165.653 74.5093 163.122 74.5093H160.501ZM162.636 72.4414H163.054C164.026 72.4414 164.523 72.2154 164.523 71.4809C164.523 70.7577 164.026 70.4865 163.133 70.4865H162.636V72.4414ZM162.636 68.8593H163.133C163.845 68.8593 164.275 68.6333 164.275 68.0118C164.275 67.3338 163.857 67.1191 163.133 67.1191H162.636V68.8593ZM167.894 74.5206V65.1981H170.222C173.295 65.1981 174.437 66.9948 174.437 68.9271C174.437 70.0232 174.064 71.0741 173.25 71.7747L174.663 74.5093H172.03L171.25 72.6222C171.035 72.6561 170.798 72.6674 170.55 72.6674H170.165V74.5206H167.894ZM170.165 70.4526H170.617C171.668 70.4526 172.211 69.7972 172.211 68.9271C172.211 68.0457 171.657 67.4129 170.617 67.4129H170.165V70.4526ZM179.983 74.6788C177.18 74.6788 175.146 72.4301 175.146 69.8424C175.146 67.266 177.18 65.0173 179.983 65.0173C182.921 65.0173 185.192 67.6276 184.751 70.5091H177.384C177.553 71.6843 178.604 72.5996 179.971 72.5996C180.898 72.5996 181.7 72.125 182.118 71.4018H184.57C183.972 73.3002 182.197 74.6788 179.983 74.6788ZM177.519 68.8141H182.39C182.096 67.831 181.135 67.1304 179.96 67.1304C178.785 67.1304 177.836 67.8423 177.519 68.8141ZM186.899 74.5093H184.515L187.905 65.2094H190.255L193.589 74.5093H191.261L190.877 73.3567H187.283L186.899 74.5093ZM187.871 71.5826H190.289L189.08 67.9101L187.871 71.5826ZM194.64 74.5093V67.3451H192.775V65.1868H198.787V67.3451H196.911V74.5093H194.64ZM199.62 74.5093V65.1868H201.891V68.6898H204.185V65.1868H206.468V74.5093H204.185V70.8707H201.891V74.5093H199.62ZM209.162 74.5093V67.3451H207.297V65.1868H213.309V67.3451H211.433V74.5093H209.162ZM214.862 74.5093H212.478L215.868 65.2094H218.218L221.552 74.5093H219.224L218.84 73.3567H215.247L214.862 74.5093ZM215.834 71.5826H218.252L217.043 67.9101L215.834 71.5826ZM222.154 74.5206V65.2094H224.425V68.8932L226.177 65.2094H228.832L226.538 69.3791L229.522 74.5093H226.697L224.425 69.9441V74.5206H222.154ZM230.022 74.5093V65.2207H232.305V74.5093H230.022ZM233.752 74.5093V65.1981H236.046L238.758 70.3509V65.1981H241.04V74.5093H238.78L236.035 69.3113V74.5093H233.752ZM246.944 74.6788C244.13 74.6788 242.108 72.4301 242.108 69.8424C242.108 67.266 244.13 65.0173 246.944 65.0173C249.227 65.0173 250.989 66.5089 251.554 68.4525L248.921 68.4638C248.582 67.7745 247.825 67.2999 246.944 67.2999C245.373 67.2999 244.356 68.4751 244.356 69.8763C244.356 71.2775 245.351 72.4527 246.921 72.4527C247.882 72.4527 248.786 71.8764 249.08 71.0289H246.322V69.3339H251.713C252.052 72.1363 249.893 74.6788 246.944 74.6788ZM255.866 74.5093V65.2094H258.883L261.256 71.5261L263.596 65.2094H266.59V74.5093H264.319V69.0627L262.251 74.5093H260.228L258.138 68.9949V74.5093H255.866ZM277.315 69.8424C277.315 72.4301 275.293 74.6788 272.49 74.6788C269.677 74.6788 267.654 72.4301 267.654 69.8424C267.654 67.266 269.677 65.0173 272.49 65.0173C275.293 65.0173 277.315 67.266 277.315 69.8424ZM269.937 69.8424C269.937 71.2323 271.01 72.3962 272.49 72.3962C273.959 72.3962 275.033 71.2323 275.033 69.8424C275.033 68.4525 273.959 67.2999 272.49 67.2999C271.01 67.2999 269.937 68.4525 269.937 69.8424ZM278.378 74.5093V65.2094H281.395L283.768 71.5261L286.107 65.2094H289.102V74.5093H286.83V69.0627L284.763 74.5093H282.74L280.649 68.9949V74.5093H278.378ZM295.002 74.6788C292.2 74.6788 290.166 72.4301 290.166 69.8424C290.166 67.266 292.2 65.0173 295.002 65.0173C297.94 65.0173 300.211 67.6276 299.771 70.5091H292.403C292.573 71.6843 293.623 72.5996 294.991 72.5996C295.917 72.5996 296.72 72.125 297.138 71.4018H299.59C298.991 73.3002 297.217 74.6788 295.002 74.6788ZM292.539 68.8141H297.409C297.115 67.831 296.155 67.1304 294.979 67.1304C293.804 67.1304 292.855 67.8423 292.539 68.8141ZM300.901 74.5093V65.1981H303.195L305.907 70.3509V65.1981H308.189V74.5093H305.929L303.183 69.3113V74.5093H300.901ZM310.895 74.5093V67.3451H309.03V65.1868H315.042V67.3451H313.166V74.5093H310.895ZM314.804 72.351C315.448 72.351 315.787 72.0233 315.787 71.2888V68.3734C315.787 66.2942 317.154 65.1077 319.064 65.0851V67.3677C318.408 67.3677 318.058 67.7067 318.058 68.4073V71.2888C318.058 73.3567 316.702 74.6336 314.804 74.6336V72.351Z" fill="white"/>
</svg>
